<?xml version="1.0" encoding="utf-8"?>
<!-- Generator: Adobe Illustrator 15.0.2, SVG Export Plug-In . SVG Version: 6.00 Build 0)  -->
<!DOCTYPE svg PUBLIC "-//W3C//DTD SVG 1.1//EN" "http://www.w3.org/Graphics/SVG/1.1/DTD/svg11.dtd">
<svg version="1.1" id="Layer_1" xmlns="http://www.w3.org/2000/svg" xmlns:xlink="http://www.w3.org/1999/xlink" x="0px" y="0px"
	 width="512px" height="597.333px" viewBox="0 0 512 597.333" enable-background="new 0 0 512 597.333" xml:space="preserve">
<path d="M18.486,0h361.25c10.208,0,18.486,8.278,18.486,18.486v91.027c0,10.209-8.278,18.486-18.486,18.486H160.708
	C142.646,128,128,142.646,128,160.708v304.361c0,10.208-8.277,18.486-18.486,18.486H18.486C8.278,483.556,0,475.277,0,465.069
	V18.486C0,8.278,8.278,0,18.486,0z M189.152,170.667h304.361c10.209,0,18.486,8.277,18.486,18.485v389.695
	c0,10.208-8.277,18.485-18.486,18.485H189.152c-10.208,0-18.485-8.277-18.485-18.485V189.152
	C170.667,178.944,178.944,170.667,189.152,170.667z"/>
</svg>
